<?xml version="1.0" encoding="UTF-8" standalone="no"?>
<svg
   viewBox="0 0 409654.25 268372.34"
   version="1.1"
   id="svg1"
   sodipodi:docname="tshirt-solid.svg"
   xml:space="preserve"
   width="409654.25"
   height="268372.34"
   xmlns:inkscape="http://www.inkscape.org/namespaces/inkscape"
   xmlns:sodipodi="http://sodipodi.sourceforge.net/DTD/sodipodi-0.dtd"
   xmlns="http://www.w3.org/2000/svg"
   xmlns:svg="http://www.w3.org/2000/svg"><defs
     id="defs1" /><sodipodi:namedview
     id="namedview1"
     pagecolor="#ffffff"
     bordercolor="#000000"
     borderopacity="0.25"
     inkscape:showpageshadow="2"
     inkscape:pageopacity="0.0"
     inkscape:pagecheckerboard="0"
     inkscape:deskcolor="#d1d1d1"
     inkscape:export-bgcolor="#00ac8c00" /><!-- Font Awesome Pro 5.15.4 by @fontawesome - https://fontawesome.com License - https://fontawesome.com/license (Commercial License) --><path
     d="M 669.74987,96.5 475.04987,0 c -20.1,27.8 -64.6,47.2 -116.5,47.2 -51.9,0 -96.4,-19.4 -116.5,-47.2 L 47.349873,96.5 c -7.9,4 -11.1,13.6 -7.2,21.5 l 57.2,114.5 c 3.999997,7.9 13.599997,11.1 21.499997,7.2 l 56.6,-27.7 c 10.6,-5.2 23,2.5 23,14.4 V 480 c 0,17.7 14.3,32 32,32 h 256 c 17.7,0 32,-14.3 32,-32 V 226.3 c 0,-11.8 12.4,-19.6 23,-14.4 l 56.6,27.7 c 7.9,4 17.5,0.8 21.5,-7.2 l 57.3,-114.4 c 4,-7.9 0.8,-17.6 -7.1,-21.5 z"
     id="path1"
     style="fill:#000000;fill-opacity:1;stroke:none;stroke-width:1.01106;stroke-dasharray:none;stroke-opacity:1" /><path
     d="m 639.53131,382.74772 c 0,74.72203 -60.54502,135.26703 -135.26705,135.26703 -74.72204,0 -135.26706,-60.545 -135.26706,-135.26703 0,-67.63354 49.61961,-123.69131 114.45674,-133.64125 v -22.43612 h -18.20902 c -4.29213,0 -7.80389,-3.51174 -7.80389,-7.80387 v -26.01289 c 0,-4.29214 3.51176,-7.80387 7.80389,-7.80387 h 78.03867 c 4.29214,0 7.80387,3.51173 7.80387,7.80387 v 26.01289 c 0,4.29213 -3.51173,7.80387 -7.80387,7.80387 h -18.20902 v 22.43612 c 24.3871,3.77186 46.62811,14.04696 64.83713,29.00437 l 17.88387,-17.88386 c 3.05651,-3.05651 7.99896,-3.05651 11.05547,0 l 18.40414,18.40412 c 3.05651,3.05651 3.05651,7.99896 0,11.05547 l -19.11949,19.11949 -0.39019,0.39019 c 13.78683,21.07044 21.78581,46.36798 21.78581,73.55147 z m -114.45674,23.4116 v -98.52385 c 0,-4.29214 -3.51173,-7.80385 -7.80387,-7.80385 h -26.01289 c -4.29213,0 -7.80387,3.51171 -7.80387,7.80385 v 98.52385 c 0,4.29213 3.51174,7.80386 7.80387,7.80386 h 26.01289 c 4.29214,0 7.80387,-3.51173 7.80387,-7.80386 z"
     id="path1-8"
     style="fill:#000000;fill-opacity:1;stroke:#ffffff;stroke-width:12.3;stroke-dasharray:none;stroke-opacity:1" /><rect
     style="fill:#fefefe;fill-opacity:1;stroke:none;stroke-width:10.5724;stroke-dasharray:none;stroke-opacity:1"
     id="rect1"
     width="34.395878"
     height="109.36125"
     x="487.46017"
     y="298.97958" /></svg>
